<?xml version="1.0" encoding="UTF-8" standalone="no"?><!DOCTYPE svg PUBLIC "-//W3C//DTD SVG 1.1//EN" "http://www.w3.org/Graphics/SVG/1.1/DTD/svg11.dtd"><svg width="100%" height="100%" viewBox="0 0 314 107" version="1.1" xmlns="http://www.w3.org/2000/svg" xmlns:xlink="http://www.w3.org/1999/xlink" xml:space="preserve" xmlns:serif="http://www.serif.com/" style="fill-rule:evenodd;clip-rule:evenodd;"><rect id="Prancheta2" x="0" y="0" width="313.618" height="106.898" style="fill:none;"/><g transform="matrix(1,0,-0.143782,0.83993,-165.20025,-183.914757)"><g transform="matrix(48.556697,0,0,48.556697,260.52591,272.205358)"><path d="M0.565,-0.666c0.017,0.009 0.027,0.022 0.03,0.041c0.003,0.019 -0.002,0.036 -0.015,0.051c-0.009,0.012 -0.02,0.019 -0.033,0.02c-0.014,0.001 -0.027,-0.001 -0.041,-0.008c-0.016,-0.007 -0.033,-0.013 -0.05,-0.017c-0.018,-0.004 -0.036,-0.006 -0.055,-0.006c-0.036,0 -0.068,0.006 -0.097,0.017c-0.028,0.011 -0.052,0.027 -0.072,0.049c-0.02,0.021 -0.035,0.046 -0.046,0.074c-0.01,0.029 -0.015,0.06 -0.015,0.095c0,0.041 0.006,0.076 0.017,0.106c0.012,0.03 0.028,0.055 0.049,0.075c0.021,0.02 0.045,0.035 0.073,0.045c0.028,0.01 0.058,0.014 0.091,0.014c0.018,0 0.036,-0.002 0.054,-0.005c0.018,-0.003 0.035,-0.009 0.052,-0.018c0.014,-0.007 0.028,-0.009 0.041,-0.007c0.014,0.002 0.025,0.009 0.034,0.021c0.013,0.017 0.018,0.034 0.015,0.052c-0.004,0.018 -0.014,0.031 -0.03,0.039c-0.017,0.009 -0.035,0.016 -0.054,0.021c-0.018,0.006 -0.037,0.01 -0.055,0.013c-0.019,0.003 -0.038,0.005 -0.057,0.005c-0.048,0 -0.094,-0.008 -0.137,-0.023c-0.043,-0.015 -0.081,-0.038 -0.115,-0.068c-0.034,-0.03 -0.06,-0.067 -0.079,-0.113c-0.019,-0.045 -0.029,-0.097 -0.029,-0.157c0,-0.051 0.009,-0.099 0.027,-0.142c0.018,-0.043 0.043,-0.081 0.075,-0.113c0.032,-0.032 0.07,-0.056 0.114,-0.074c0.044,-0.018 0.092,-0.026 0.144,-0.026c0.029,0 0.058,0.003 0.086,0.01c0.028,0.007 0.054,0.016 0.079,0.029Z" style="fill:#fff;fill-rule:nonzero;"/></g><g transform="matrix(48.556697,0,0,48.556697,290.970959,272.205358)"><path d="M0.584,-0.267c0,0.055 -0.012,0.103 -0.036,0.145c-0.024,0.042 -0.057,0.074 -0.098,0.098c-0.041,0.023 -0.087,0.035 -0.138,0.035c-0.051,-0 -0.096,-0.012 -0.137,-0.035c-0.041,-0.023 -0.074,-0.056 -0.098,-0.098c-0.024,-0.042 -0.036,-0.09 -0.036,-0.145c0,-0.055 0.012,-0.103 0.036,-0.145c0.024,-0.042 0.057,-0.074 0.098,-0.098c0.041,-0.024 0.087,-0.035 0.137,-0.035c0.051,0 0.097,0.012 0.138,0.035c0.041,0.024 0.074,0.056 0.098,0.098c0.024,0.042 0.036,0.09 0.036,0.145Zm-0.12,0c0,-0.034 -0.007,-0.064 -0.021,-0.088c-0.014,-0.025 -0.032,-0.045 -0.055,-0.059c-0.023,-0.014 -0.048,-0.021 -0.077,-0.021c-0.028,0 -0.053,0.007 -0.076,0.021c-0.023,0.014 -0.041,0.034 -0.055,0.059c-0.014,0.025 -0.02,0.054 -0.02,0.088c0,0.033 0.007,0.063 0.02,0.088c0.014,0.025 0.032,0.044 0.055,0.058c0.023,0.014 0.049,0.021 0.076,0.021c0.028,-0 0.053,-0.007 0.077,-0.021c0.023,-0.014 0.041,-0.034 0.055,-0.058c0.014,-0.025 0.021,-0.054 0.021,-0.088Z" style="fill:#fff;fill-rule:nonzero;"/></g><g transform="matrix(48.556697,0,0,48.556697,321.270338,272.205358)"><path d="M0.351,-0.545c0.049,0 0.087,0.01 0.112,0.031c0.026,0.021 0.043,0.048 0.053,0.083c0.01,0.034 0.015,0.073 0.015,0.114l0,0.256c0,0.017 -0.006,0.032 -0.017,0.043c-0.011,0.012 -0.026,0.018 -0.043,0.018c-0.017,-0 -0.032,-0.006 -0.043,-0.018c-0.011,-0.012 -0.017,-0.026 -0.017,-0.043l0,-0.256c0,-0.022 -0.003,-0.042 -0.009,-0.059c-0.006,-0.018 -0.016,-0.032 -0.031,-0.042c-0.015,-0.011 -0.036,-0.016 -0.063,-0.016c-0.027,0 -0.049,0.005 -0.068,0.016c-0.018,0.011 -0.032,0.025 -0.042,0.042c-0.01,0.018 -0.015,0.037 -0.015,0.059l0,0.256c-0,0.017 -0.006,0.032 -0.017,0.043c-0.011,0.012 -0.026,0.018 -0.043,0.018c-0.017,-0 -0.032,-0.006 -0.043,-0.018c-0.011,-0.012 -0.017,-0.026 -0.017,-0.043l0,-0.413c0,-0.017 0.006,-0.032 0.017,-0.043c0.011,-0.012 0.026,-0.018 0.043,-0.018c0.017,0 0.032,0.006 0.043,0.018c0.011,0.012 0.017,0.026 0.017,0.043l0,0.043l-0.015,-0.003c0.006,-0.011 0.015,-0.024 0.026,-0.037c0.011,-0.013 0.025,-0.025 0.04,-0.036c0.015,-0.011 0.033,-0.02 0.052,-0.027c0.019,-0.007 0.04,-0.011 0.063,-0.011Z" style="fill:#fff;fill-rule:nonzero;"/></g><g transform="matrix(48.556697,0,0,48.556697,350.210129,272.205358)"><path d="M0.317,0.01c-0.057,0 -0.106,-0.012 -0.147,-0.036c-0.042,-0.024 -0.074,-0.056 -0.096,-0.097c-0.022,-0.041 -0.033,-0.087 -0.033,-0.138c0,-0.06 0.012,-0.111 0.036,-0.154c0.024,-0.042 0.056,-0.075 0.096,-0.097c0.039,-0.023 0.081,-0.034 0.125,-0.034c0.034,0 0.066,0.007 0.097,0.021c0.03,0.014 0.057,0.033 0.081,0.057c0.023,0.024 0.042,0.053 0.055,0.085c0.014,0.032 0.021,0.066 0.021,0.102c-0.001,0.016 -0.007,0.029 -0.019,0.039c-0.012,0.01 -0.026,0.015 -0.042,0.015l-0.382,0l-0.03,-0.1l0.367,0l-0.022,0.02l0,-0.027c-0.001,-0.019 -0.008,-0.037 -0.02,-0.052c-0.012,-0.015 -0.028,-0.028 -0.046,-0.036c-0.018,-0.009 -0.038,-0.014 -0.058,-0.014c-0.02,0 -0.039,0.003 -0.056,0.008c-0.017,0.005 -0.032,0.014 -0.045,0.027c-0.013,0.013 -0.023,0.03 -0.03,0.051c-0.007,0.021 -0.011,0.048 -0.011,0.081c0,0.036 0.008,0.067 0.022,0.092c0.015,0.025 0.034,0.044 0.058,0.057c0.024,0.013 0.049,0.019 0.075,0.02c0.025,-0 0.044,-0.002 0.059,-0.006c0.015,-0.004 0.027,-0.009 0.036,-0.014c0.009,-0.006 0.017,-0.011 0.024,-0.015c0.012,-0.006 0.023,-0.009 0.034,-0.009c0.015,0 0.027,0.005 0.037,0.015c0.01,0.01 0.014,0.022 0.014,0.035c0,0.018 -0.009,0.034 -0.028,0.049c-0.017,0.015 -0.042,0.028 -0.073,0.038c-0.031,0.011 -0.064,0.017 -0.097,0.017Z" style="fill:#fff;fill-rule:nonzero;"/></g><g transform="matrix(48.556697,0,0,48.556697,378.85858,272.205358)"><path d="M0.303,-0.545c0.038,0 0.071,0.004 0.1,0.012c0.028,0.008 0.05,0.019 0.066,0.034c0.016,0.014 0.023,0.031 0.023,0.051c0,0.013 -0.004,0.026 -0.012,0.037c-0.008,0.012 -0.02,0.018 -0.035,0.018c-0.011,0 -0.02,-0.002 -0.027,-0.005c-0.007,-0.003 -0.013,-0.007 -0.018,-0.012c-0.005,-0.005 -0.012,-0.009 -0.019,-0.013c-0.007,-0.004 -0.017,-0.007 -0.03,-0.01c-0.014,-0.002 -0.024,-0.004 -0.031,-0.004c-0.034,0 -0.063,0.007 -0.086,0.022c-0.024,0.015 -0.042,0.035 -0.055,0.06c-0.013,0.025 -0.019,0.054 -0.019,0.086c0,0.032 0.007,0.061 0.019,0.086c0.013,0.025 0.031,0.045 0.054,0.059c0.023,0.015 0.049,0.022 0.079,0.022c0.017,-0 0.031,-0.001 0.043,-0.003c0.012,-0.002 0.022,-0.005 0.03,-0.009c0.009,-0.005 0.018,-0.011 0.025,-0.017c0.007,-0.006 0.018,-0.009 0.033,-0.009c0.017,0 0.031,0.006 0.04,0.017c0.009,0.011 0.014,0.025 0.014,0.04c0,0.017 -0.009,0.032 -0.028,0.045c-0.019,0.014 -0.043,0.025 -0.074,0.033c-0.03,0.008 -0.063,0.013 -0.099,0.013c-0.053,0 -0.098,-0.012 -0.137,-0.036c-0.039,-0.024 -0.068,-0.058 -0.089,-0.1c-0.021,-0.042 -0.032,-0.089 -0.032,-0.141c0,-0.055 0.011,-0.103 0.033,-0.145c0.022,-0.042 0.053,-0.074 0.093,-0.098c0.04,-0.024 0.085,-0.035 0.136,-0.035Z" style="fill:#fff;fill-rule:nonzero;"/></g><g transform="matrix(48.556697,0,0,48.556697,404.108062,272.205358)"><path d="M0.071,-0.525l0.237,0c0.016,0 0.029,0.005 0.04,0.016c0.011,0.011 0.016,0.024 0.016,0.04c0,0.015 -0.005,0.028 -0.016,0.039c-0.011,0.01 -0.024,0.015 -0.04,0.015l-0.237,0c-0.016,0 -0.029,-0.005 -0.04,-0.016c-0.011,-0.011 -0.016,-0.024 -0.016,-0.04c0,-0.015 0.005,-0.028 0.016,-0.039c0.011,-0.01 0.024,-0.015 0.04,-0.015Zm0.107,-0.125c0.017,0 0.032,0.006 0.043,0.017c0.011,0.012 0.017,0.026 0.017,0.044l0,0.445c0,0.009 0.002,0.017 0.005,0.023c0.004,0.006 0.009,0.01 0.015,0.013c0.006,0.003 0.013,0.004 0.021,0.004c0.008,-0 0.015,-0.001 0.022,-0.004c0.007,-0.003 0.014,-0.005 0.023,-0.005c0.009,0 0.018,0.004 0.026,0.013c0.008,0.009 0.012,0.021 0.011,0.036c0,0.019 -0.01,0.034 -0.03,0.046c-0.02,0.012 -0.042,0.018 -0.066,0.018c-0.014,-0 -0.029,-0.001 -0.047,-0.004c-0.017,-0.002 -0.033,-0.008 -0.048,-0.017c-0.015,-0.009 -0.028,-0.023 -0.038,-0.041c-0.01,-0.019 -0.015,-0.044 -0.015,-0.077l0,-0.45c0,-0.017 0.006,-0.032 0.018,-0.044c0.012,-0.012 0.026,-0.017 0.043,-0.017Z" style="fill:#fff;fill-rule:nonzero;"/></g><g transform="matrix(48.556697,0,0,48.556697,423.967751,272.205358)"><path d="M0.503,-0.545c0.017,0 0.032,0.006 0.043,0.017c0.011,0.011 0.017,0.026 0.017,0.044l0,0.423c0,0.017 -0.006,0.032 -0.017,0.043c-0.011,0.012 -0.026,0.018 -0.043,0.018c-0.017,-0 -0.032,-0.006 -0.043,-0.018c-0.011,-0.012 -0.017,-0.026 -0.017,-0.043l0,-0.049l0.022,0.009c0,0.009 -0.005,0.019 -0.014,0.032c-0.009,0.012 -0.022,0.025 -0.038,0.037c-0.016,0.012 -0.035,0.022 -0.057,0.031c-0.022,0.008 -0.045,0.012 -0.07,0.012c-0.046,0 -0.088,-0.012 -0.125,-0.036c-0.037,-0.024 -0.067,-0.056 -0.089,-0.098c-0.022,-0.042 -0.032,-0.089 -0.032,-0.144c0,-0.055 0.011,-0.103 0.032,-0.145c0.022,-0.042 0.051,-0.074 0.088,-0.098c0.037,-0.024 0.077,-0.035 0.122,-0.035c0.029,0 0.055,0.004 0.079,0.013c0.024,0.009 0.045,0.02 0.062,0.033c0.018,0.013 0.031,0.027 0.041,0.04c0.01,0.014 0.015,0.025 0.015,0.035l-0.036,0.013l0,-0.073c0,-0.017 0.006,-0.032 0.017,-0.043c0.011,-0.012 0.026,-0.018 0.043,-0.018Zm-0.202,0.445c0.029,-0 0.055,-0.007 0.077,-0.022c0.022,-0.015 0.039,-0.035 0.051,-0.06c0.012,-0.025 0.019,-0.054 0.019,-0.085c0,-0.032 -0.006,-0.061 -0.019,-0.086c-0.012,-0.025 -0.029,-0.045 -0.051,-0.06c-0.022,-0.015 -0.048,-0.022 -0.077,-0.022c-0.029,0 -0.054,0.007 -0.076,0.022c-0.022,0.015 -0.039,0.035 -0.051,0.06c-0.012,0.025 -0.019,0.054 -0.019,0.086c0,0.031 0.006,0.06 0.019,0.085c0.012,0.025 0.029,0.045 0.051,0.06c0.022,0.015 0.047,0.022 0.076,0.022Z" style="fill:#fff;fill-rule:nonzero;"/></g><g transform="matrix(48.556697,0,0,48.556697,454.461357,272.205358)"></g></g><g transform="matrix(1,0,-0.143782,0.83993,-163.912444,-182.481064)"><g transform="matrix(49.773995,0,0,49.773995,269.013265,316.790142)"><path d="M0.332,-0.543l-0.216,0.508c-0.005,0.013 -0.012,0.023 -0.021,0.03c-0.01,0.007 -0.02,0.01 -0.032,0.01c-0.018,-0 -0.031,-0.005 -0.04,-0.015c-0.009,-0.01 -0.013,-0.022 -0.013,-0.037c0,-0.006 0.001,-0.012 0.003,-0.019l0.249,-0.598c0.005,-0.013 0.014,-0.024 0.025,-0.031c0.011,-0.007 0.023,-0.01 0.035,-0.009c0.012,-0 0.023,0.004 0.033,0.01c0.01,0.007 0.018,0.017 0.023,0.029l0.246,0.586c0.003,0.009 0.005,0.017 0.005,0.024c0,0.018 -0.006,0.032 -0.017,0.043c-0.012,0.011 -0.024,0.016 -0.038,0.016c-0.012,-0 -0.023,-0.004 -0.033,-0.011c-0.01,-0.007 -0.017,-0.017 -0.022,-0.03l-0.215,-0.501l0.029,-0.006Zm-0.185,0.386l0.055,-0.115l0.27,0l0.019,0.115l-0.344,0Z" style="fill:#fff;fill-rule:nonzero;"/></g><g transform="matrix(49.773995,0,0,49.773995,300.818848,316.790142)"><path d="M0.346,-0.545c0.053,0 0.093,0.013 0.118,0.038c0.025,0.026 0.042,0.059 0.05,0.1l-0.017,-0.009l0.008,-0.016c0.008,-0.015 0.02,-0.032 0.037,-0.049c0.017,-0.018 0.037,-0.033 0.06,-0.045c0.024,-0.012 0.05,-0.019 0.08,-0.019c0.048,0 0.085,0.01 0.109,0.031c0.025,0.021 0.042,0.048 0.051,0.083c0.009,0.034 0.014,0.073 0.014,0.114l0,0.256c-0,0.017 -0.006,0.032 -0.017,0.043c-0.011,0.012 -0.026,0.018 -0.043,0.018c-0.017,-0 -0.032,-0.006 -0.043,-0.018c-0.011,-0.012 -0.017,-0.026 -0.017,-0.043l0,-0.256c0,-0.022 -0.003,-0.042 -0.008,-0.059c-0.005,-0.018 -0.015,-0.032 -0.029,-0.042c-0.014,-0.011 -0.034,-0.016 -0.06,-0.016c-0.025,0 -0.047,0.005 -0.065,0.016c-0.018,0.011 -0.032,0.025 -0.041,0.042c-0.009,0.018 -0.013,0.037 -0.013,0.059l0,0.256c0,0.017 -0.006,0.032 -0.017,0.043c-0.011,0.012 -0.026,0.018 -0.043,0.018c-0.017,-0 -0.032,-0.006 -0.043,-0.018c-0.011,-0.012 -0.017,-0.026 -0.017,-0.043l0,-0.256c0,-0.022 -0.003,-0.042 -0.008,-0.059c-0.005,-0.018 -0.015,-0.032 -0.029,-0.042c-0.014,-0.011 -0.034,-0.016 -0.06,-0.016c-0.025,0 -0.047,0.005 -0.065,0.016c-0.018,0.011 -0.032,0.025 -0.041,0.042c-0.009,0.018 -0.014,0.037 -0.014,0.059l0,0.256c-0,0.017 -0.006,0.032 -0.017,0.043c-0.011,0.012 -0.026,0.018 -0.043,0.018c-0.017,-0 -0.032,-0.006 -0.043,-0.018c-0.011,-0.012 -0.017,-0.026 -0.017,-0.043l0,-0.413c0,-0.017 0.006,-0.032 0.017,-0.043c0.011,-0.012 0.026,-0.018 0.043,-0.018c0.017,0 0.032,0.006 0.043,0.018c0.011,0.012 0.017,0.026 0.017,0.043l0,0.043l-0.015,-0.003c0.006,-0.011 0.014,-0.024 0.025,-0.037c0.011,-0.013 0.024,-0.025 0.039,-0.036c0.015,-0.011 0.032,-0.02 0.051,-0.027c0.019,-0.007 0.039,-0.011 0.061,-0.011Z" style="fill:#fff;fill-rule:nonzero;"/></g><g transform="matrix(49.773995,0,0,49.773995,346.710471,316.790142)"><path d="M0.503,-0.545c0.017,0 0.032,0.006 0.043,0.017c0.011,0.011 0.017,0.026 0.017,0.044l0,0.423c0,0.017 -0.006,0.032 -0.017,0.043c-0.011,0.012 -0.026,0.018 -0.043,0.018c-0.017,-0 -0.032,-0.006 -0.043,-0.018c-0.011,-0.012 -0.017,-0.026 -0.017,-0.043l0,-0.049l0.022,0.009c0,0.009 -0.005,0.019 -0.014,0.032c-0.009,0.012 -0.022,0.025 -0.038,0.037c-0.016,0.012 -0.035,0.022 -0.057,0.031c-0.022,0.008 -0.045,0.012 -0.07,0.012c-0.046,0 -0.088,-0.012 -0.125,-0.036c-0.037,-0.024 -0.067,-0.056 -0.089,-0.098c-0.022,-0.042 -0.032,-0.089 -0.032,-0.144c0,-0.055 0.011,-0.103 0.032,-0.145c0.022,-0.042 0.051,-0.074 0.088,-0.098c0.037,-0.024 0.077,-0.035 0.122,-0.035c0.029,0 0.055,0.004 0.079,0.013c0.024,0.009 0.045,0.02 0.062,0.033c0.018,0.013 0.031,0.027 0.041,0.04c0.01,0.014 0.015,0.025 0.015,0.035l-0.036,0.013l0,-0.073c0,-0.017 0.006,-0.032 0.017,-0.043c0.011,-0.012 0.026,-0.018 0.043,-0.018Zm-0.202,0.445c0.029,-0 0.055,-0.007 0.077,-0.022c0.022,-0.015 0.039,-0.035 0.051,-0.06c0.012,-0.025 0.019,-0.054 0.019,-0.085c0,-0.032 -0.006,-0.061 -0.019,-0.086c-0.012,-0.025 -0.029,-0.045 -0.051,-0.06c-0.022,-0.015 -0.048,-0.022 -0.077,-0.022c-0.029,0 -0.054,0.007 -0.076,0.022c-0.022,0.015 -0.039,0.035 -0.051,0.06c-0.012,0.025 -0.019,0.054 -0.019,0.086c0,0.031 0.006,0.06 0.019,0.085c0.012,0.025 0.029,0.045 0.051,0.06c0.022,0.015 0.047,0.022 0.076,0.022Z" style="fill:#fff;fill-rule:nonzero;"/></g><g transform="matrix(49.773995,0,0,49.773995,377.96854,316.790142)"><path d="M0.406,-0.11c0.016,0 0.029,0.005 0.04,0.015c0.011,0.01 0.016,0.024 0.016,0.04c0,0.015 -0.005,0.028 -0.016,0.039c-0.011,0.011 -0.024,0.016 -0.04,0.016l-0.322,-0c-0.017,-0 -0.03,-0.006 -0.04,-0.018c-0.01,-0.012 -0.015,-0.024 -0.014,-0.036c0.001,-0.01 0.002,-0.019 0.004,-0.027c0.002,-0.008 0.007,-0.016 0.015,-0.026l0.249,-0.322l-0.002,0.014l-0.203,0c-0.016,0 -0.029,-0.005 -0.04,-0.016c-0.011,-0.011 -0.016,-0.024 -0.016,-0.04c0,-0.015 0.005,-0.028 0.016,-0.039c0.011,-0.01 0.024,-0.015 0.04,-0.015l0.308,0c0.015,0 0.028,0.006 0.039,0.017c0.011,0.011 0.015,0.026 0.014,0.043c-0.001,0.007 -0.002,0.013 -0.004,0.02c-0.002,0.007 -0.006,0.015 -0.014,0.024l-0.245,0.317l0,-0.006l0.214,0Z" style="fill:#fff;fill-rule:nonzero;"/></g><g transform="matrix(49.773995,0,0,49.773995,402.059154,316.790142)"><path d="M0.584,-0.267c0,0.055 -0.012,0.103 -0.036,0.145c-0.024,0.042 -0.057,0.074 -0.098,0.098c-0.041,0.023 -0.087,0.035 -0.138,0.035c-0.051,-0 -0.096,-0.012 -0.137,-0.035c-0.041,-0.023 -0.074,-0.056 -0.098,-0.098c-0.024,-0.042 -0.036,-0.09 -0.036,-0.145c0,-0.055 0.012,-0.103 0.036,-0.145c0.024,-0.042 0.057,-0.074 0.098,-0.098c0.041,-0.024 0.087,-0.035 0.137,-0.035c0.051,0 0.097,0.012 0.138,0.035c0.041,0.024 0.074,0.056 0.098,0.098c0.024,0.042 0.036,0.09 0.036,0.145Zm-0.12,0c0,-0.034 -0.007,-0.064 -0.021,-0.088c-0.014,-0.025 -0.032,-0.045 -0.055,-0.059c-0.023,-0.014 -0.048,-0.021 -0.077,-0.021c-0.028,0 -0.053,0.007 -0.076,0.021c-0.023,0.014 -0.041,0.034 -0.055,0.059c-0.014,0.025 -0.02,0.054 -0.02,0.088c0,0.033 0.007,0.063 0.02,0.088c0.014,0.025 0.032,0.044 0.055,0.058c0.023,0.014 0.049,0.021 0.076,0.021c0.028,-0 0.053,-0.007 0.077,-0.021c0.023,-0.014 0.041,-0.034 0.055,-0.058c0.014,-0.025 0.021,-0.054 0.021,-0.088Zm-0.13,-0.42l-0.077,0.064c-0.009,0.007 -0.016,0.013 -0.021,0.017c-0.006,0.004 -0.015,0.007 -0.027,0.007c-0.009,0 -0.016,-0.003 -0.022,-0.008c-0.006,-0.005 -0.008,-0.011 -0.009,-0.017c0,-0.005 0.001,-0.01 0.002,-0.015c0.001,-0.004 0.005,-0.01 0.01,-0.016l0.049,-0.062c0.015,-0.019 0.036,-0.029 0.061,-0.029l0.036,0c0.013,0 0.024,0.002 0.031,0.006c0.008,0.004 0.015,0.012 0.023,0.023l0.044,0.062c0.005,0.007 0.009,0.012 0.01,0.016c0.001,0.004 0.002,0.009 0.002,0.015c0,0.007 -0.003,0.012 -0.008,0.017c-0.005,0.005 -0.013,0.008 -0.022,0.008c-0.013,0 -0.022,-0.002 -0.027,-0.007c-0.005,-0.004 -0.013,-0.01 -0.022,-0.017l-0.084,-0.074l0.051,0.01Z" style="fill:#fff;fill-rule:nonzero;"/></g><g transform="matrix(49.773995,0,0,49.773995,433.118127,316.790142)"><path d="M0.351,-0.545c0.049,0 0.087,0.01 0.112,0.031c0.026,0.021 0.043,0.048 0.053,0.083c0.01,0.034 0.015,0.073 0.015,0.114l0,0.256c0,0.017 -0.006,0.032 -0.017,0.043c-0.011,0.012 -0.026,0.018 -0.043,0.018c-0.017,-0 -0.032,-0.006 -0.043,-0.018c-0.011,-0.012 -0.017,-0.026 -0.017,-0.043l0,-0.256c0,-0.022 -0.003,-0.042 -0.009,-0.059c-0.006,-0.018 -0.016,-0.032 -0.031,-0.042c-0.015,-0.011 -0.036,-0.016 -0.063,-0.016c-0.027,0 -0.049,0.005 -0.068,0.016c-0.018,0.011 -0.032,0.025 -0.042,0.042c-0.01,0.018 -0.015,0.037 -0.015,0.059l0,0.256c-0,0.017 -0.006,0.032 -0.017,0.043c-0.011,0.012 -0.026,0.018 -0.043,0.018c-0.017,-0 -0.032,-0.006 -0.043,-0.018c-0.011,-0.012 -0.017,-0.026 -0.017,-0.043l0,-0.413c0,-0.017 0.006,-0.032 0.017,-0.043c0.011,-0.012 0.026,-0.018 0.043,-0.018c0.017,0 0.032,0.006 0.043,0.018c0.011,0.012 0.017,0.026 0.017,0.043l0,0.043l-0.015,-0.003c0.006,-0.011 0.015,-0.024 0.026,-0.037c0.011,-0.013 0.025,-0.025 0.04,-0.036c0.015,-0.011 0.033,-0.02 0.052,-0.027c0.019,-0.007 0.04,-0.011 0.063,-0.011Z" style="fill:#fff;fill-rule:nonzero;"/></g><g transform="matrix(49.773995,0,0,49.773995,462.783428,316.790142)"><path d="M0.178,-0.061c0,0.017 -0.006,0.032 -0.017,0.043c-0.011,0.012 -0.026,0.018 -0.043,0.018c-0.017,-0 -0.032,-0.006 -0.043,-0.018c-0.011,-0.012 -0.017,-0.026 -0.017,-0.043l0,-0.413c0,-0.017 0.006,-0.032 0.017,-0.043c0.011,-0.012 0.026,-0.018 0.043,-0.018c0.017,0 0.032,0.006 0.043,0.018c0.011,0.012 0.017,0.026 0.017,0.043l0,0.413Zm-0.061,-0.539c-0.023,-0 -0.039,-0.004 -0.048,-0.011c-0.009,-0.007 -0.014,-0.02 -0.014,-0.039l0,-0.019c0,-0.019 0.005,-0.033 0.016,-0.039c0.01,-0.007 0.026,-0.01 0.048,-0.01c0.023,0 0.04,0.004 0.049,0.011c0.009,0.007 0.014,0.02 0.014,0.039l0,0.019c-0,0.019 -0.005,0.032 -0.015,0.039c-0.01,0.007 -0.026,0.011 -0.049,0.011Z" style="fill:#fff;fill-rule:nonzero;"/></g><g transform="matrix(49.773995,0,0,49.773995,474.530091,316.790142)"><path d="M0.503,-0.545c0.017,0 0.032,0.006 0.043,0.017c0.011,0.011 0.017,0.026 0.017,0.044l0,0.423c0,0.017 -0.006,0.032 -0.017,0.043c-0.011,0.012 -0.026,0.018 -0.043,0.018c-0.017,-0 -0.032,-0.006 -0.043,-0.018c-0.011,-0.012 -0.017,-0.026 -0.017,-0.043l0,-0.049l0.022,0.009c0,0.009 -0.005,0.019 -0.014,0.032c-0.009,0.012 -0.022,0.025 -0.038,0.037c-0.016,0.012 -0.035,0.022 -0.057,0.031c-0.022,0.008 -0.045,0.012 -0.07,0.012c-0.046,0 -0.088,-0.012 -0.125,-0.036c-0.037,-0.024 -0.067,-0.056 -0.089,-0.098c-0.022,-0.042 -0.032,-0.089 -0.032,-0.144c0,-0.055 0.011,-0.103 0.032,-0.145c0.022,-0.042 0.051,-0.074 0.088,-0.098c0.037,-0.024 0.077,-0.035 0.122,-0.035c0.029,0 0.055,0.004 0.079,0.013c0.024,0.009 0.045,0.02 0.062,0.033c0.018,0.013 0.031,0.027 0.041,0.04c0.01,0.014 0.015,0.025 0.015,0.035l-0.036,0.013l0,-0.073c0,-0.017 0.006,-0.032 0.017,-0.043c0.011,-0.012 0.026,-0.018 0.043,-0.018Zm-0.202,0.445c0.029,-0 0.055,-0.007 0.077,-0.022c0.022,-0.015 0.039,-0.035 0.051,-0.06c0.012,-0.025 0.019,-0.054 0.019,-0.085c0,-0.032 -0.006,-0.061 -0.019,-0.086c-0.012,-0.025 -0.029,-0.045 -0.051,-0.06c-0.022,-0.015 -0.048,-0.022 -0.077,-0.022c-0.029,0 -0.054,0.007 -0.076,0.022c-0.022,0.015 -0.039,0.035 -0.051,0.06c-0.012,0.025 -0.019,0.054 -0.019,0.086c0,0.031 0.006,0.06 0.019,0.085c0.012,0.025 0.029,0.045 0.051,0.06c0.022,0.015 0.047,0.022 0.076,0.022Z" style="fill:#fff;fill-rule:nonzero;"/></g><g transform="matrix(49.773995,0,0,49.773995,505.78816,316.790142)"></g></g><path d="M54.815,73.674c0,5.713 -10.259,10.345 -22.914,10.345c-12.655,0 -22.914,-4.632 -22.914,-10.345c0,-5.713 10.259,-10.345 22.914,-10.345c12.655,0 22.914,4.632 22.914,10.345Zm-23.197,-8.22c5.44,0 10.353,0.904 13.894,2.354c1.771,0.725 3.186,1.582 4.154,2.518c0.967,0.936 1.471,1.935 1.471,2.956c0,1.022 -0.505,2.021 -1.471,2.956c-0.968,0.937 -2.383,1.793 -4.154,2.519c-3.541,1.45 -8.454,2.354 -13.894,2.354c-5.44,0 -10.353,-0.904 -13.894,-2.354c-1.771,-0.725 -3.186,-1.582 -4.154,-2.519c-0.967,-0.936 -1.471,-1.935 -1.471,-2.956c0,-1.022 0.505,-2.02 1.471,-2.956c0.968,-0.937 2.383,-1.793 4.154,-2.518c3.541,-1.45 8.454,-2.354 13.894,-2.354Z" style="fill:#fff;"/><path d="M22.777,16.021c2.371,-0.265 5.543,0.362 8.839,3.038c0.022,0.006 0.054,0.014 0.094,0.022c0.083,0.018 0.186,0.037 0.281,0.053c0.002,0 0.004,0 0.008,0.001c0.011,0.001 0.027,0.001 0.048,0.001c0.04,0 0.091,0 0.142,-0.001c0.051,-0.001 0.102,-0.003 0.141,-0.005c0.02,-0.001 0.036,-0.002 0.048,-0.003c0.002,-0 0.004,-0.001 0.005,-0.001c1.001,-0.22 4.794,-0.996 8.852,-0.815c4.048,0.18 8.472,1.32 10.57,5.051c0.721,1.283 1.011,2.214 1.225,2.883c0.219,0.684 0.337,0.999 0.665,1.214c0.41,0.27 0.893,0.526 1.391,0.779c0.493,0.25 1.007,0.5 1.455,0.748c0.446,0.247 0.856,0.507 1.138,0.791c0.282,0.284 0.483,0.642 0.377,1.059c-0.138,0.544 -0.573,0.876 -1.115,1.076c-0.539,0.199 -1.234,0.288 -1.993,0.323c-0.764,0.036 -1.618,0.018 -2.486,-0.008c-0.872,-0.026 -1.759,-0.061 -2.602,-0.061l-8.044,0c-0.97,1.599 -2.638,3.831 -4.604,5.497c-1.996,1.692 -4.389,2.872 -6.687,2.035c-0.229,-0.083 -0.469,-0.217 -0.535,-0.47c-0.064,-0.247 0.076,-0.47 0.195,-0.623c0.131,-0.168 0.324,-0.357 0.535,-0.559c0.217,-0.207 0.463,-0.44 0.724,-0.709c1.003,-1.037 2.193,-2.614 2.285,-5.136c-2.457,0.284 -5.263,0.796 -7.53,2.468c-0.637,0.47 -3.722,4.031 -4.178,7.48c-0.414,3.132 1.74,6.172 2.283,6.724c1.14,1.159 2.597,2.026 4.34,2.026c0.541,0 1.203,0.151 1.871,0.378c0.673,0.228 1.373,0.541 1.996,0.88c0.62,0.338 1.178,0.709 1.557,1.058c0.188,0.173 0.348,0.355 0.444,0.536c0.096,0.179 0.154,0.408 0.043,0.629c-0.115,0.228 -0.345,0.375 -0.579,0.479c-0.242,0.107 -0.54,0.19 -0.86,0.259c-0.633,0.137 -1.43,0.238 -2.138,0.357c-0.732,0.123 -1.368,0.266 -1.765,0.481c-0.196,0.106 -0.3,0.212 -0.344,0.308c-0.039,0.085 -0.052,0.205 0.034,0.395c0.42,0.933 1.114,2.069 1.78,3.132c0.547,0.873 1.081,1.708 1.406,2.313l12.17,-16.401c0.852,-1.149 1.364,-3.182 1.646,-5.317c0.28,-2.119 0.325,-4.28 0.281,-5.637c-0.006,-0.199 0.157,-0.345 0.339,-0.345l2.727,0c0.135,0 0.257,0.079 0.311,0.2l0.019,0.055l0.051,0.217c0.506,2.258 0.306,5.02 -0.371,7.654c-0.698,2.719 -1.913,5.336 -3.424,7.15c-1.961,2.354 -4.415,5.955 -6.848,9.51c-2.426,3.545 -4.834,7.047 -6.688,9.174c-0.156,0.178 -0.42,0.138 -0.536,-0.032c0,0 -15.339,-22.341 -15.643,-22.784c-0.304,-0.443 -0.746,-1.593 -0.908,-2.118c-2.159,-6.961 0.592,-14.491 7.02,-20.138c0.292,-0.256 0.44,-0.488 0.502,-0.69c0.06,-0.197 0.046,-0.391 -0.034,-0.59c-0.167,-0.42 -0.611,-0.846 -1.192,-1.272c-0.579,-0.424 -1.214,-0.794 -1.753,-1.152c-0.261,-0.173 -0.5,-0.344 -0.676,-0.51c-0.088,-0.083 -0.169,-0.173 -0.229,-0.268c-0.06,-0.095 -0.109,-0.211 -0.109,-0.342c0,-0.283 0.131,-0.56 0.329,-0.809c0.2,-0.251 0.484,-0.493 0.833,-0.711c0.699,-0.436 1.687,-0.792 2.873,-0.924Zm-3.469,2.444l0,-0.002c0,0.002 0.004,0.017 0.024,0.049c0.026,0.041 0.07,0.093 0.139,0.158c0.139,0.131 0.344,0.281 0.601,0.451c0.496,0.329 1.186,0.736 1.774,1.167c0.586,0.43 1.151,0.937 1.381,1.516c0.119,0.3 0.151,0.623 0.049,0.956c-0.101,0.329 -0.323,0.643 -0.667,0.946c-6.289,5.525 -8.756,13.501 -6.672,20.223c0.142,0.459 0.371,0.893 0.651,1.302l15.475,22.539c1.8,-2.114 4.106,-5.465 6.455,-8.897c2.426,-3.545 4.898,-7.173 6.881,-9.552c1.445,-1.734 2.629,-4.269 3.313,-6.932c0.666,-2.595 0.849,-5.279 0.359,-7.429l-2.315,0c0.033,1.387 -0.022,3.457 -0.291,5.494c-0.282,2.139 -0.805,4.301 -1.751,5.575l-12.387,16.695c-0.154,0.207 -0.478,0.175 -0.585,-0.06c-0.258,-0.565 -0.867,-1.51 -1.54,-2.583c-0.663,-1.058 -1.378,-2.226 -1.816,-3.199c-0.135,-0.299 -0.153,-0.59 -0.032,-0.854c0.116,-0.252 0.339,-0.432 0.588,-0.567c0.492,-0.266 1.219,-0.42 1.942,-0.542c0.746,-0.126 1.493,-0.217 2.112,-0.351c0.306,-0.066 0.56,-0.139 0.75,-0.223c0.197,-0.087 0.278,-0.167 0.304,-0.219c0,0 0,-0 0.001,-0.002c0,-0.002 0.001,-0.006 0,-0.014c-0.002,-0.019 -0.011,-0.052 -0.038,-0.102c-0.054,-0.102 -0.162,-0.234 -0.329,-0.388c-0.332,-0.306 -0.845,-0.651 -1.444,-0.977c-0.597,-0.325 -1.267,-0.624 -1.907,-0.841c-0.644,-0.219 -1.238,-0.347 -1.687,-0.347c-1.946,-0 -3.541,-0.97 -4.746,-2.195c-1.204,-1.224 -2.042,-2.725 -2.484,-3.849c-0.089,-0.228 -0.124,-0.472 -0.115,-0.707c0.204,-5.491 2.065,-8.645 4.563,-10.486c2.479,-1.828 5.541,-2.325 8.064,-2.604l0.039,-0.003c0.194,-0 0.338,0.162 0.337,0.339c-0.02,2.868 -1.358,4.644 -2.447,5.771c-0.27,0.28 -0.528,0.521 -0.74,0.724c-0.218,0.208 -0.379,0.368 -0.481,0.499c-0.059,0.075 -0.08,0.119 -0.088,0.139c0.019,0.016 0.067,0.048 0.176,0.087c1.99,0.724 4.157,-0.269 6.123,-1.935c1.951,-1.653 3.615,-3.897 4.553,-5.467l0.025,-0.036c0.063,-0.08 0.16,-0.128 0.266,-0.128l8.172,0c0.854,0 1.754,0.035 2.619,0.061c0.869,0.026 1.703,0.043 2.442,0.009c0.743,-0.035 1.366,-0.12 1.822,-0.288c0.452,-0.167 0.69,-0.394 0.764,-0.688c0.036,-0.142 -0.011,-0.309 -0.233,-0.531c-0.222,-0.223 -0.572,-0.453 -1.011,-0.695c-0.436,-0.241 -0.93,-0.481 -1.436,-0.738c-0.5,-0.254 -1.008,-0.522 -1.447,-0.811c-0.517,-0.34 -0.682,-0.859 -0.885,-1.495c-0.002,-0.006 -0.004,-0.011 -0.005,-0.017c-0.005,-0.016 -0.01,-0.032 -0.015,-0.047c-0.209,-0.655 -0.488,-1.529 -1.164,-2.732c-1.945,-3.46 -6.093,-4.585 -10.101,-4.764c-3.99,-0.178 -7.73,0.589 -8.709,0.804c-0.042,0.009 -0.1,0.013 -0.138,0.015c-0.048,0.003 -0.105,0.005 -0.161,0.006c-0.056,0.001 -0.113,0.002 -0.161,0.002c-0.037,-0 -0.097,-0.001 -0.139,-0.008c-0.1,-0.017 -0.215,-0.038 -0.312,-0.059c-0.048,-0.01 -0.095,-0.021 -0.135,-0.032c-0.02,-0.006 -0.042,-0.012 -0.064,-0.021l-0.001,-0c-0.014,-0.005 -0.058,-0.022 -0.099,-0.056c-3.198,-2.611 -6.234,-3.19 -8.451,-2.943c-1.112,0.124 -2.016,0.456 -2.634,0.841c-0.309,0.193 -0.54,0.395 -0.691,0.584c-0.152,0.191 -0.207,0.349 -0.208,0.461l0,0.002Z" style="fill:#fff;fill-rule:nonzero;"/><path d="M19.308,18.463c0.001,-0.113 0.056,-0.27 0.208,-0.461c0.15,-0.189 0.381,-0.391 0.691,-0.584c0.618,-0.385 1.522,-0.717 2.634,-0.841c2.218,-0.248 5.254,0.332 8.451,2.943c0.041,0.034 0.086,0.051 0.1,0.056c0.022,0.008 0.044,0.015 0.064,0.021c0.04,0.011 0.088,0.022 0.135,0.032c0.097,0.021 0.212,0.042 0.312,0.059c0.042,0.007 0.101,0.008 0.139,0.008c0.048,0 0.105,-0 0.161,-0.002c0.056,-0.001 0.113,-0.003 0.161,-0.006c0.037,-0.002 0.096,-0.006 0.138,-0.015c0.979,-0.215 4.72,-0.982 8.709,-0.804c4.007,0.179 8.156,1.304 10.101,4.764c0.676,1.203 0.955,2.077 1.164,2.732l0.015,0.047l0.005,0.017c0.203,0.636 0.369,1.154 0.885,1.495c0.439,0.289 0.947,0.557 1.447,0.811c0.506,0.257 1,0.496 1.436,0.738c0.438,0.243 0.788,0.472 1.011,0.695c0.221,0.223 0.269,0.389 0.233,0.531c-0.074,0.294 -0.312,0.521 -0.764,0.688c-0.455,0.168 -1.078,0.254 -1.822,0.288c-0.739,0.034 -1.574,0.017 -2.442,-0.009c-0.865,-0.026 -1.765,-0.061 -2.619,-0.061l-8.172,0c-0.106,0 -0.203,0.048 -0.266,0.128l-0.025,0.036c-0.938,1.57 -2.602,3.814 -4.553,5.467c-1.966,1.666 -4.133,2.659 -6.123,1.935c-0.109,-0.04 -0.156,-0.072 -0.176,-0.087c0.008,-0.021 0.029,-0.064 0.088,-0.139c0.102,-0.13 0.263,-0.29 0.481,-0.499c0.212,-0.203 0.469,-0.444 0.74,-0.724c1.09,-1.127 2.427,-2.904 2.447,-5.771c0.001,-0.177 -0.143,-0.339 -0.337,-0.339l-0.039,0.003c-2.523,0.28 -5.585,0.776 -8.064,2.604c-2.497,1.841 -4.359,4.995 -4.563,10.486c-0.009,0.235 0.026,0.48 0.115,0.707c0.441,1.124 1.279,2.625 2.484,3.849c1.205,1.225 2.8,2.195 4.746,2.195c0.45,0 1.043,0.129 1.687,0.347c0.64,0.217 1.31,0.516 1.907,0.841c0.599,0.326 1.112,0.672 1.444,0.977c0.167,0.154 0.275,0.286 0.329,0.388c0.026,0.05 0.035,0.083 0.038,0.102c0.001,0.008 0,0.013 0,0.014l-0.001,0.002c-0.026,0.052 -0.107,0.132 -0.304,0.219c-0.189,0.084 -0.444,0.157 -0.75,0.223c-0.618,0.134 -1.365,0.226 -2.112,0.351c-0.722,0.122 -1.449,0.276 -1.942,0.542c-0.249,0.134 -0.472,0.315 -0.588,0.567c-0.121,0.263 -0.103,0.554 0.032,0.854c0.438,0.973 1.153,2.142 1.816,3.199c0.673,1.073 1.281,2.019 1.54,2.583c0.108,0.235 0.431,0.267 0.585,0.06l12.387,-16.695c0.946,-1.274 1.469,-3.437 1.751,-5.575c0.269,-2.037 0.324,-4.107 0.291,-5.494l2.315,0c0.49,2.15 0.307,4.834 -0.359,7.429c-0.684,2.663 -1.868,5.198 -3.313,6.932c-1.982,2.379 -4.454,6.007 -6.881,9.552c-2.349,3.432 -4.655,6.783 -6.455,8.897l-15.475,-22.539c-0.281,-0.409 -0.509,-0.843 -0.651,-1.302c-2.085,-6.721 0.383,-14.698 6.672,-20.223c0.344,-0.303 0.567,-0.617 0.667,-0.946c0.102,-0.333 0.071,-0.656 -0.049,-0.956c-0.231,-0.579 -0.795,-1.086 -1.381,-1.516c-0.588,-0.431 -1.278,-0.838 -1.774,-1.167c-0.257,-0.17 -0.462,-0.32 -0.601,-0.451c-0.069,-0.065 -0.114,-0.118 -0.139,-0.158c-0.02,-0.032 -0.023,-0.047 -0.024,-0.049Zm27.723,9.508c0.625,0 1.132,-0.501 1.132,-1.118c0,-0.618 -0.507,-1.118 -1.132,-1.118c-0.625,0 -1.132,0.501 -1.132,1.118c0,0.618 0.507,1.118 1.132,1.118Z" style="fill:#fff;"/><path d="M16.484,75.015c5.431,-6.263 10.373,-5.778 12.164,-4.753l5.941,2.46c2.64,1.584 8.996,1.342 12.164,-2.46" style="fill:none;fill-rule:nonzero;stroke:#fff;stroke-width:0.56px;"/></svg>